<?xml version="1.0" encoding="UTF-8" standalone="no"?>
<!-- Created with Inkscape (http://www.inkscape.org/) -->

<svg
   width="59.09462mm"
   height="19.970221mm"
   viewBox="0 0 59.09462 19.970221"
   version="1.1"
   id="svg1576"
   inkscape:version="1.1.2 (0a00cf5339, 2022-02-04)"
   sodipodi:docname="LGPLv3 Logo.svg"
   xmlns:inkscape="http://www.inkscape.org/namespaces/inkscape"
   xmlns:sodipodi="http://sodipodi.sourceforge.net/DTD/sodipodi-0.dtd"
   xmlns="http://www.w3.org/2000/svg"
   xmlns:svg="http://www.w3.org/2000/svg">
  <sodipodi:namedview
     id="namedview1578"
     pagecolor="#505050"
     bordercolor="#ffffff"
     borderopacity="1"
     inkscape:pageshadow="0"
     inkscape:pageopacity="0"
     inkscape:pagecheckerboard="1"
     inkscape:document-units="mm"
     showgrid="false"
     fit-margin-top="0"
     fit-margin-left="0"
     fit-margin-right="0"
     fit-margin-bottom="0"
     inkscape:zoom="3.5495542"
     inkscape:cx="126.63562"
     inkscape:cy="106.49225"
     inkscape:window-width="1800"
     inkscape:window-height="1180"
     inkscape:window-x="0"
     inkscape:window-y="0"
     inkscape:window-maximized="1"
     inkscape:current-layer="g325" />
  <defs
     id="defs1573" />
  <g
     inkscape:label="Layer 1"
     inkscape:groupmode="layer"
     id="layer1"
     transform="translate(-6.6401035,-61.063569)">
    <g
       id="g325"
       transform="matrix(0.26458333,0,0,0.26458333,-139.61786,17.519238)">
      <g
         id="g337">
        <path
           d="m 740.254,164.577 h 19.454 l -29.968,50.5 c -1.712,2.815 -3.382,4.981 -5.01,6.499 -1.628,1.518 -3.132,2.622 -4.512,3.311 -1.379,0.691 -2.566,1.091 -3.559,1.201 -0.994,0.111 -1.686,0.166 -2.07,0.166 h -17.882 v -43.628 h 16.724 l 0.082,29.968 z"
           id="path339"
           style="fill:#16813d" />
      </g>
      <rect
         x="552.78601"
         y="226.267"
         width="143.922"
         height="13.788"
         id="rect341"
         style="fill:#16813d" />
      <g
         id="g343">
        <path
           d="m 591.483,231.774 c 0.036,-0.249 -0.006,-0.421 -0.131,-0.516 h 0.007 c -0.114,-0.086 -0.278,-0.129 -0.497,-0.129 h -4.098 c -0.244,0 -0.471,0.056 -0.68,0.169 -0.184,0.096 -0.3,0.208 -0.348,0.34 l -0.435,1.196 h 3.024 l -0.305,0.836 h -3.025 l -0.93,2.555 h -0.843 l 1.67,-4.587 c 0.136,-0.375 0.423,-0.698 0.854,-0.965 0.42,-0.257 0.861,-0.387 1.322,-0.387 h 4.098 c 0.436,0 0.758,0.121 0.971,0.36 0.234,0.24 0.299,0.616 0.195,1.128 z"
           id="path345"
           style="fill:#ffffff" />
        <path
           d="m 597.534,233.377 c 0.017,-0.235 -0.055,-0.396 -0.213,-0.482 -0.059,-0.036 -0.125,-0.062 -0.199,-0.075 -0.076,-0.013 -0.154,-0.02 -0.234,-0.02 h -1.979 c -0.199,0 -0.396,0.038 -0.592,0.116 -0.227,0.086 -0.363,0.194 -0.41,0.326 l -1.086,2.983 h -0.844 l 1.551,-4.261 h 0.844 l -0.064,0.176 c 0.167,-0.063 0.322,-0.108 0.467,-0.136 0.143,-0.027 0.287,-0.041 0.434,-0.041 h 1.984 c 0.375,0 0.683,0.095 0.922,0.285 0.287,0.231 0.371,0.607 0.255,1.128 h -0.836 z"
           id="path347"
           style="fill:#ffffff" />
        <path
           d="m 605.035,233.228 c -0.144,0.395 -0.456,0.718 -0.938,0.972 -0.396,0.208 -0.801,0.312 -1.207,0.312 h -1.979 c -0.131,0 -0.253,-0.01 -0.368,-0.033 -0.114,-0.022 -0.253,-0.065 -0.415,-0.129 l -0.207,0.57 -0.006,0.014 c -0.029,0.118 0.041,0.225 0.211,0.32 0.072,0.05 0.148,0.084 0.227,0.106 0.078,0.02 0.159,0.03 0.24,0.03 h 1.979 c 0.08,0 0.163,-0.007 0.247,-0.02 0.085,-0.014 0.169,-0.04 0.255,-0.075 0.221,-0.087 0.409,-0.248 0.563,-0.483 h 0.835 c -0.26,0.516 -0.617,0.89 -1.073,1.122 -0.374,0.194 -0.751,0.292 -1.132,0.292 h -1.979 c -0.381,0 -0.699,-0.099 -0.957,-0.299 -0.322,-0.25 -0.409,-0.578 -0.262,-0.985 l 0.621,-1.706 c 0.147,-0.404 0.453,-0.725 0.916,-0.966 0.391,-0.204 0.802,-0.305 1.232,-0.305 h 1.979 c 0.416,0 0.748,0.097 0.994,0.292 0.298,0.24 0.374,0.563 0.224,0.971 z m -0.848,0.014 c 0.041,-0.108 0,-0.204 -0.119,-0.285 -0.13,-0.104 -0.317,-0.156 -0.562,-0.156 h -1.972 c -0.172,0 -0.367,0.038 -0.585,0.116 -0.229,0.082 -0.367,0.188 -0.415,0.319 -0.047,0.126 0.012,0.233 0.176,0.319 0.146,0.082 0.316,0.122 0.506,0.122 h 1.979 c 0.234,0 0.456,-0.049 0.665,-0.149 0.178,-0.082 0.287,-0.177 0.327,-0.286 z"
           id="path349"
           style="fill:#ffffff" />
        <path
           d="m 611.669,233.228 c -0.145,0.395 -0.457,0.718 -0.938,0.972 -0.397,0.208 -0.801,0.312 -1.208,0.312 h -1.978 c -0.132,0 -0.253,-0.01 -0.368,-0.033 -0.114,-0.022 -0.253,-0.065 -0.414,-0.129 l -0.209,0.57 -0.004,0.014 c -0.03,0.118 0.039,0.225 0.209,0.32 0.072,0.05 0.148,0.084 0.227,0.106 0.079,0.02 0.16,0.03 0.24,0.03 h 1.979 c 0.08,0 0.164,-0.007 0.248,-0.02 0.084,-0.014 0.17,-0.04 0.255,-0.075 0.222,-0.087 0.409,-0.248 0.563,-0.483 h 0.834 c -0.26,0.516 -0.617,0.89 -1.072,1.122 -0.375,0.194 -0.752,0.292 -1.133,0.292 h -1.979 c -0.38,0 -0.699,-0.099 -0.957,-0.299 -0.322,-0.25 -0.408,-0.578 -0.26,-0.985 l 0.62,-1.706 c 0.147,-0.404 0.452,-0.725 0.917,-0.966 0.39,-0.204 0.801,-0.305 1.23,-0.305 h 1.979 c 0.416,0 0.748,0.097 0.994,0.292 0.299,0.24 0.373,0.563 0.225,0.971 z m -0.848,0.014 c 0.039,-0.108 -0.002,-0.204 -0.121,-0.285 -0.129,-0.104 -0.316,-0.156 -0.561,-0.156 h -1.972 c -0.172,0 -0.368,0.038 -0.585,0.116 -0.229,0.082 -0.367,0.188 -0.416,0.319 -0.045,0.126 0.014,0.233 0.176,0.319 0.147,0.082 0.316,0.122 0.506,0.122 h 1.979 c 0.234,0 0.457,-0.049 0.666,-0.149 0.179,-0.082 0.287,-0.177 0.328,-0.286 z"
           id="path351"
           style="fill:#ffffff" />
        <path
           d="m 624.409,235.845 c -0.404,0.253 -0.84,0.38 -1.307,0.38 h -4.111 c -0.432,0 -0.754,-0.116 -0.969,-0.347 -0.23,-0.249 -0.295,-0.629 -0.195,-1.141 h 0.836 c -0.029,0.24 0.017,0.412 0.138,0.516 h -0.007 c 0.121,0.09 0.289,0.136 0.501,0.136 h 4.112 c 0.239,0 0.464,-0.057 0.672,-0.169 0.19,-0.101 0.31,-0.215 0.357,-0.347 l 0.248,-0.68 c 0.047,-0.131 0.012,-0.247 -0.105,-0.347 -0.125,-0.113 -0.313,-0.17 -0.557,-0.17 h -4.104 c -0.462,0 -0.808,-0.126 -1.036,-0.38 -0.244,-0.264 -0.297,-0.588 -0.154,-0.979 l 0.248,-0.68 c 0.136,-0.375 0.422,-0.698 0.854,-0.965 0.42,-0.257 0.861,-0.387 1.322,-0.387 h 4.113 c 0.43,0 0.75,0.121 0.962,0.36 0.234,0.24 0.3,0.616 0.194,1.128 h -0.835 c 0.028,-0.24 -0.019,-0.413 -0.14,-0.516 h 0.007 c -0.112,-0.086 -0.278,-0.129 -0.495,-0.129 h -4.112 c -0.245,0 -0.474,0.056 -0.687,0.169 -0.186,0.096 -0.301,0.208 -0.348,0.34 l -0.248,0.68 c -0.05,0.136 -0.018,0.254 0.096,0.354 0.126,0.113 0.314,0.169 0.563,0.169 h 4.112 c 0.466,0 0.811,0.127 1.029,0.381 0.242,0.267 0.295,0.59 0.156,0.972 l -0.248,0.68 c -0.138,0.385 -0.426,0.71 -0.862,0.972 z"
           id="path353"
           style="fill:#ffffff" />
        <path
           d="m 630.942,235.913 c -0.393,0.208 -0.796,0.312 -1.207,0.312 h -1.979 c -0.404,0 -0.73,-0.102 -0.982,-0.305 -0.305,-0.25 -0.383,-0.577 -0.236,-0.979 l 0.621,-1.706 c 0.145,-0.395 0.456,-0.718 0.939,-0.972 0.396,-0.208 0.802,-0.312 1.213,-0.312 h 1.979 c 0.389,0 0.71,0.097 0.961,0.292 0.314,0.254 0.4,0.582 0.252,0.985 l -0.623,1.713 c -0.143,0.393 -0.455,0.718 -0.938,0.972 z m 0.718,-2.685 c 0.046,-0.127 -0.013,-0.232 -0.175,-0.32 -0.139,-0.077 -0.307,-0.115 -0.502,-0.115 h -1.979 c -0.199,0 -0.393,0.036 -0.582,0.108 -0.232,0.091 -0.371,0.199 -0.418,0.326 l -0.625,1.72 c -0.047,0.127 0.012,0.233 0.175,0.319 0.147,0.081 0.313,0.122 0.5,0.122 h 1.984 c 0.091,0 0.183,-0.009 0.282,-0.027 0.096,-0.019 0.195,-0.047 0.296,-0.089 0.232,-0.09 0.372,-0.201 0.42,-0.332 z"
           id="path355"
           style="fill:#ffffff" />
        <path
           d="m 634.794,232.8 -1.247,3.425 h -0.843 l 1.695,-4.662 c 0.146,-0.399 0.419,-0.718 0.82,-0.959 0.352,-0.208 0.792,-0.312 1.322,-0.312 l -0.299,0.823 c -0.332,0.049 -0.572,0.113 -0.723,0.189 -0.15,0.078 -0.242,0.165 -0.277,0.259 l -0.146,0.401 h 0.842 l -0.304,0.836 z"
           id="path357"
           style="fill:#ffffff" />
        <path
           d="m 638.612,232.8 -1.246,3.425 h -0.85 l 1.246,-3.425 h -0.836 l 0.305,-0.836 h 0.836 l 0.611,-1.678 h 0.849 l -0.61,1.678 h 0.843 l -0.304,0.836 z"
           id="path359"
           style="fill:#ffffff" />
        <path
           d="m 645.048,235.898 c -0.357,0.213 -0.762,0.32 -1.21,0.32 -0.244,0 -0.473,-0.035 -0.683,-0.103 -0.211,-0.068 -0.39,-0.174 -0.537,-0.319 -0.254,0.141 -0.517,0.247 -0.785,0.319 -0.269,0.073 -0.525,0.109 -0.771,0.109 -0.431,0 -0.752,-0.104 -0.966,-0.312 -0.236,-0.236 -0.279,-0.56 -0.13,-0.972 l 1.083,-2.977 h 0.844 l -1.086,2.983 c -0.047,0.127 -0.008,0.23 0.117,0.312 0.137,0.086 0.327,0.129 0.571,0.129 0.249,0 0.47,-0.043 0.659,-0.129 0.186,-0.077 0.303,-0.183 0.354,-0.318 l 0.668,-1.835 h 0.843 l -0.671,1.842 c -0.047,0.132 -0.008,0.233 0.121,0.306 0.136,0.086 0.321,0.129 0.557,0.129 0.254,0 0.476,-0.043 0.666,-0.129 0.188,-0.077 0.302,-0.179 0.348,-0.306 l 1.086,-2.983 h 0.851 l -1.083,2.977 c -0.145,0.398 -0.428,0.718 -0.846,0.957 z"
           id="path361"
           style="fill:#ffffff" />
        <path
           d="m 651.396,235.92 c -0.396,0.204 -0.805,0.305 -1.226,0.305 h -1.978 c -0.426,0 -0.762,-0.099 -1.006,-0.299 -0.295,-0.236 -0.368,-0.559 -0.217,-0.972 0.145,-0.398 0.456,-0.72 0.936,-0.965 0.396,-0.208 0.803,-0.313 1.214,-0.313 h 1.979 c 0.127,0 0.247,0.013 0.36,0.035 0.115,0.022 0.253,0.065 0.415,0.129 l 0.21,-0.578 c 0.027,-0.122 -0.04,-0.23 -0.2,-0.326 -0.144,-0.09 -0.299,-0.136 -0.466,-0.136 h -1.979 c -0.086,0 -0.171,0.007 -0.256,0.02 -0.084,0.014 -0.169,0.04 -0.254,0.075 -0.222,0.086 -0.41,0.248 -0.563,0.482 h -0.836 c 0.264,-0.516 0.62,-0.89 1.067,-1.121 0.374,-0.195 0.753,-0.292 1.14,-0.292 h 1.983 c 0.39,0 0.71,0.097 0.96,0.292 0.318,0.245 0.403,0.573 0.254,0.985 l -0.621,1.706 c -0.146,0.405 -0.452,0.728 -0.916,0.973 z m 0.072,-0.966 c 0.046,-0.126 -0.012,-0.233 -0.176,-0.319 -0.146,-0.082 -0.313,-0.123 -0.498,-0.123 h -1.979 c -0.231,0 -0.455,0.051 -0.673,0.151 -0.179,0.081 -0.288,0.176 -0.328,0.285 -0.042,0.113 -0.005,0.21 0.11,0.292 0.137,0.099 0.324,0.149 0.565,0.149 h 1.983 c 0.195,0 0.387,-0.036 0.576,-0.109 0.234,-0.09 0.373,-0.198 0.42,-0.326 z"
           id="path363"
           style="fill:#ffffff" />
        <path
           d="m 658.695,233.377 c 0.017,-0.235 -0.054,-0.396 -0.212,-0.482 -0.06,-0.036 -0.126,-0.062 -0.201,-0.075 -0.074,-0.013 -0.152,-0.02 -0.233,-0.02 h -1.978 c -0.199,0 -0.398,0.038 -0.594,0.116 -0.225,0.086 -0.361,0.194 -0.41,0.326 l -1.086,2.983 h -0.843 l 1.551,-4.261 h 0.843 l -0.063,0.176 c 0.167,-0.063 0.323,-0.108 0.467,-0.136 0.144,-0.027 0.288,-0.041 0.433,-0.041 h 1.984 c 0.377,0 0.684,0.095 0.923,0.285 0.287,0.231 0.372,0.607 0.255,1.128 h -0.836 z"
           id="path365"
           style="fill:#ffffff" />
        <path
           d="m 666.196,233.228 c -0.144,0.395 -0.456,0.718 -0.938,0.972 -0.398,0.208 -0.801,0.312 -1.208,0.312 h -1.978 c -0.133,0 -0.254,-0.01 -0.369,-0.033 -0.113,-0.022 -0.252,-0.065 -0.414,-0.129 l -0.208,0.57 -0.005,0.014 c -0.029,0.118 0.04,0.225 0.209,0.32 0.072,0.05 0.148,0.084 0.227,0.106 0.08,0.02 0.16,0.03 0.24,0.03 h 1.979 c 0.081,0 0.164,-0.007 0.248,-0.02 0.085,-0.014 0.17,-0.04 0.256,-0.075 0.221,-0.087 0.408,-0.248 0.563,-0.483 h 0.835 c -0.261,0.516 -0.617,0.89 -1.073,1.122 -0.374,0.194 -0.752,0.292 -1.132,0.292 h -1.979 c -0.381,0 -0.7,-0.099 -0.958,-0.299 -0.322,-0.25 -0.408,-0.578 -0.26,-0.985 l 0.621,-1.706 c 0.146,-0.404 0.452,-0.725 0.916,-0.966 0.391,-0.204 0.801,-0.305 1.231,-0.305 h 1.979 c 0.416,0 0.747,0.097 0.994,0.292 0.299,0.24 0.373,0.563 0.224,0.971 z m -0.847,0.014 c 0.039,-0.108 -0.001,-0.204 -0.121,-0.285 -0.129,-0.104 -0.316,-0.156 -0.561,-0.156 h -1.971 c -0.172,0 -0.368,0.038 -0.586,0.116 -0.229,0.082 -0.367,0.188 -0.415,0.319 -0.046,0.126 0.013,0.233 0.176,0.319 0.147,0.082 0.315,0.122 0.506,0.122 h 1.978 c 0.235,0 0.457,-0.049 0.666,-0.149 0.179,-0.082 0.288,-0.177 0.328,-0.286 z"
           id="path367"
           style="fill:#ffffff" />
      </g>
      <g
         id="g6659"
         style="fill:#ffffff;fill-opacity:1;stroke:#0d1117;stroke-width:3.77953;stroke-linejoin:round;stroke-miterlimit:4;stroke-dasharray:none;stroke-opacity:1;paint-order:stroke fill markers">
        <g
           id="g327"
           style="fill:#ffffff;fill-opacity:1;stroke:#0d1117;stroke-width:3.77953;stroke-linejoin:round;stroke-miterlimit:4;stroke-dasharray:none;stroke-opacity:1;paint-order:stroke fill markers">
          <path
             d="m 589.022,212.291 c -0.249,1.475 -0.944,2.66 -2.088,3.554 -1.11,0.862 -2.452,1.292 -4.026,1.292 h -15.037 c -1.689,0 -3.123,-0.464 -4.299,-1.392 -1.243,-0.961 -1.864,-2.146 -1.864,-3.554 V 195.44 h 3.106 v 16.751 c 0,0.497 0.273,0.928 0.82,1.292 l -0.025,-0.025 c 0.613,0.414 1.367,0.621 2.262,0.621 h 15.037 c 0.762,0 1.425,-0.166 1.988,-0.497 h -0.025 c 0.597,-0.364 1.003,-0.985 1.219,-1.864 h 2.436 z"
             id="path329"
             style="fill:#ffffff;fill-opacity:1;stroke:#0d1117;stroke-width:3.77953;stroke-linejoin:round;stroke-miterlimit:4;stroke-dasharray:none;stroke-opacity:1;paint-order:stroke fill markers" />
          <path
             d="m 619.89,215.721 c -1.193,0.944 -2.635,1.417 -4.324,1.417 h -15.012 c -1.707,0 -3.132,-0.464 -4.275,-1.392 -1.227,-0.961 -1.839,-2.146 -1.839,-3.554 v -11.831 c 0,-1.375 0.612,-2.551 1.839,-3.529 1.193,-0.944 2.635,-1.417 4.324,-1.417 h 15.037 c 1.574,0 2.908,0.439 4.001,1.317 1.144,0.878 1.881,2.262 2.212,4.15 h -3.057 c -0.216,-0.911 -0.621,-1.549 -1.218,-1.914 -0.514,-0.315 -1.168,-0.472 -1.964,-0.472 h -15.012 c -0.895,0 -1.656,0.207 -2.286,0.621 -0.547,0.348 -0.82,0.762 -0.82,1.243 v 11.831 c 0,0.497 0.273,0.928 0.82,1.292 l -0.024,-0.025 c 0.612,0.414 1.366,0.621 2.262,0.621 h 15.012 c 0.778,0 1.474,-0.166 2.087,-0.497 0.729,-0.348 1.094,-0.82 1.094,-1.417 v -4.35 h -12.153 v -3.057 h 15.186 v 7.432 c -0.002,1.377 -0.632,2.553 -1.89,3.531 z"
             id="path331"
             style="fill:#ffffff;fill-opacity:1;stroke:#0d1117;stroke-width:3.77953;stroke-linejoin:round;stroke-miterlimit:4;stroke-dasharray:none;stroke-opacity:1;paint-order:stroke fill markers" />
          <path
             d="m 652.744,206.4 c -1.143,0.928 -2.576,1.392 -4.3,1.392 h -18.118 v 9.345 h -3.057 v -16.776 c 0,-1.375 0.612,-2.551 1.839,-3.529 1.193,-0.944 2.635,-1.417 4.324,-1.417 h 15.012 c 1.674,0 3.099,0.472 4.275,1.417 1.242,0.978 1.864,2.154 1.864,3.529 v 2.485 c 10e-4,1.409 -0.612,2.593 -1.839,3.554 z m -1.192,-6.039 c 0,-0.464 -0.282,-0.878 -0.846,-1.243 -0.63,-0.414 -1.383,-0.621 -2.262,-0.621 h -15.036 c -0.763,0 -1.45,0.157 -2.063,0.472 -0.68,0.315 -1.02,0.779 -1.02,1.392 v 4.375 h 18.118 c 0.879,0 1.632,-0.199 2.262,-0.597 0.563,-0.364 0.846,-0.795 0.846,-1.292 v -2.486 z"
             id="path333"
             style="fill:#ffffff;fill-opacity:1;stroke:#0d1117;stroke-width:3.77953;stroke-linejoin:round;stroke-miterlimit:4;stroke-dasharray:none;stroke-opacity:1;paint-order:stroke fill markers" />
          <path
             d="m 687.365,212.291 c -0.249,1.475 -0.944,2.66 -2.088,3.554 -1.11,0.862 -2.452,1.292 -4.026,1.292 h -15.037 c -1.689,0 -3.123,-0.464 -4.299,-1.392 -1.243,-0.961 -1.864,-2.146 -1.864,-3.554 V 195.44 h 3.106 v 16.751 c 0,0.497 0.273,0.928 0.82,1.292 l -0.025,-0.025 c 0.613,0.414 1.367,0.621 2.262,0.621 h 15.037 c 0.762,0 1.425,-0.166 1.988,-0.497 h -0.024 c 0.597,-0.364 1.002,-0.985 1.218,-1.864 h 2.436 z"
             id="path335"
             style="fill:#ffffff;fill-opacity:1;stroke:#0d1117;stroke-width:3.77953;stroke-linejoin:round;stroke-miterlimit:4;stroke-dasharray:none;stroke-opacity:1;paint-order:stroke fill markers" />
        </g>
        <g
           id="g369"
           style="fill:#ffffff;fill-opacity:1;stroke:#0d1117;stroke-width:3.77953;stroke-linejoin:round;stroke-miterlimit:4;stroke-dasharray:none;stroke-opacity:1;paint-order:stroke fill markers">
          <path
             d="m 774.246,211.954 c 0,1.505 -0.664,2.771 -1.992,3.798 -1.221,0.992 -2.744,1.487 -4.568,1.487 h -16.068 c -1.682,0 -3.107,-0.452 -4.275,-1.354 -1.258,-0.974 -2.055,-2.461 -2.391,-4.462 h 3.268 c 0.229,0.938 0.654,1.611 1.274,2.019 h -0.026 c 0.602,0.354 1.318,0.531 2.15,0.531 h 16.068 c 0.921,0 1.718,-0.213 2.391,-0.638 0.602,-0.389 0.903,-0.85 0.903,-1.381 v -2.656 c 0,-0.495 -0.302,-0.938 -0.903,-1.328 -0.708,-0.46 -1.514,-0.691 -2.416,-0.691 h -8.553 v -3.267 h 8.578 c 0.939,0 1.736,-0.221 2.391,-0.664 0.602,-0.389 0.903,-0.841 0.903,-1.354 v -2.656 c 0,-0.496 -0.302,-0.938 -0.903,-1.328 -0.708,-0.46 -1.514,-0.69 -2.416,-0.69 h -16.043 c -0.814,0 -1.522,0.177 -2.124,0.531 h 0.026 c -0.637,0.372 -1.071,1.045 -1.301,2.019 h -3.268 c 0.318,-2.019 1.098,-3.488 2.338,-4.409 1.168,-0.938 2.611,-1.407 4.328,-1.407 h 16.068 c 1.789,0 3.312,0.496 4.568,1.487 1.328,1.045 1.992,2.311 1.992,3.798 0,1.292 -0.053,2.47 -0.159,3.532 -0.036,0.531 -0.212,1.019 -0.531,1.461 -0.142,0.195 -0.306,0.398 -0.491,0.611 -0.185,0.213 -0.412,0.443 -0.678,0.69 0.514,0.478 0.903,0.921 1.169,1.328 0.301,0.496 0.478,0.974 0.531,1.434 0.107,1.045 0.16,2.231 0.16,3.559 z"
             id="path371"
             style="fill:#ffffff;fill-opacity:1;stroke:#0d1117;stroke-width:3.77953;stroke-linejoin:round;stroke-miterlimit:4;stroke-dasharray:none;stroke-opacity:1;paint-order:stroke fill markers" />
        </g>
      </g>
    </g>
  </g>
</svg>
